<?xml version="1.0" encoding="UTF-8" standalone="no"?>
<!DOCTYPE svg PUBLIC "-//W3C//DTD SVG 1.1//EN"
 "http://www.w3.org/Graphics/SVG/1.1/DTD/svg11.dtd">
<!-- Generated by graphviz version 16.0.0 (20260814.1018)
 -->
<!-- Title: WebAgentArchitecture Pages: 1 -->
<svg width="994pt" height="1285pt"
 viewBox="0.00 0.00 994.00 1285.00" xmlns="http://www.w3.org/2000/svg" xmlns:xlink="http://www.w3.org/1999/xlink">
<g id="graph0" class="graph" transform="scale(1 1) rotate(0) translate(21.6 1263.89)">
<title>WebAgentArchitecture</title>
<polygon fill="white" stroke="none" points="-21.6,21.6 -21.6,-1263.89 971.96,-1263.89 971.96,21.6 -21.6,21.6"/>
<text xml:space="preserve" text-anchor="middle" x="475.18" y="-1219.29" font-family="Arial" font-size="20.00">WebAgent: governed browser execution with auditable evidence</text>
<!-- task -->
<g id="node1" class="node">
<title>task</title>
<ellipse fill="#e0f2fe" stroke="#155e75" stroke-width="1.4" cx="665.99" cy="-1192.37" rx="91.56" ry="18.67"/>
<text xml:space="preserve" text-anchor="middle" x="665.99" y="-1188.4" font-family="Arial" font-size="10.50" fill="#102a43">Natural&#45;language task</text>
</g>
<!-- entry -->
<g id="node2" class="node">
<title>entry</title>
<path fill="#f8fafc" stroke="#155e75" stroke-width="1.4" d="M725.48,-1142.71C725.48,-1142.71 606.5,-1142.71 606.5,-1142.71 600.5,-1142.71 594.5,-1136.71 594.5,-1130.71 594.5,-1130.71 594.5,-1118.71 594.5,-1118.71 594.5,-1112.71 600.5,-1106.71 606.5,-1106.71 606.5,-1106.71 725.48,-1106.71 725.48,-1106.71 731.48,-1106.71 737.48,-1112.71 737.48,-1118.71 737.48,-1118.71 737.48,-1130.71 737.48,-1130.71 737.48,-1136.71 731.48,-1142.71 725.48,-1142.71"/>
<text xml:space="preserve" text-anchor="middle" x="665.99" y="-1120.73" font-family="Arial" font-size="10.50" fill="#102a43">CLI / benchmark adapter</text>
</g>
<!-- task&#45;&gt;entry -->
<g id="edge1" class="edge">
<title>task&#45;&gt;entry</title>
<path fill="none" stroke="#2563a6" stroke-width="1.25" d="M665.99,-1173.08C665.99,-1166.46 665.99,-1158.86 665.99,-1151.71"/>
<polygon fill="#2563a6" stroke="#2563a6" stroke-width="1.25" points="668.51,-1152.09 665.99,-1144.89 663.47,-1152.09 668.51,-1152.09"/>
</g>
<!-- config -->
<g id="node3" class="node">
<title>config</title>
<path fill="#ecfdf5" stroke="#15803d" stroke-width="1.4" d="M801.98,-1075.71C801.98,-1075.71 530,-1075.71 530,-1075.71 524,-1075.71 518,-1069.71 518,-1063.71 518,-1063.71 518,-1049.31 518,-1049.31 518,-1043.31 524,-1037.31 530,-1037.31 530,-1037.31 801.98,-1037.31 801.98,-1037.31 807.98,-1037.31 813.98,-1043.31 813.98,-1049.31 813.98,-1049.31 813.98,-1063.71 813.98,-1063.71 813.98,-1069.71 807.98,-1075.71 801.98,-1075.71"/>
<text xml:space="preserve" text-anchor="middle" x="665.99" y="-1058.53" font-family="Arial" font-size="10.50" fill="#102a43">AgentConfig</text>
<text xml:space="preserve" text-anchor="middle" x="665.99" y="-1046.53" font-family="Arial" font-size="10.50" fill="#102a43">validated provider, browser, policy, and discovery settings</text>
</g>
<!-- entry&#45;&gt;config -->
<g id="edge2" class="edge">
<title>entry&#45;&gt;config</title>
<path fill="none" stroke="#2563a6" stroke-width="1.25" d="M665.99,-1106.31C665.99,-1099.74 665.99,-1092.09 665.99,-1084.83"/>
<polygon fill="#2563a6" stroke="#2563a6" stroke-width="1.25" points="668.51,-1085.03 665.99,-1077.83 663.47,-1085.03 668.51,-1085.03"/>
</g>
<!-- agent -->
<g id="node4" class="node">
<title>agent</title>
<path fill="#ccfbf1" stroke="#0f766e" stroke-width="2" d="M792.61,-1006.31C792.61,-1006.31 539.38,-1006.31 539.38,-1006.31 533.38,-1006.31 527.38,-1000.31 527.38,-994.31 527.38,-994.31 527.38,-963.41 527.38,-963.41 527.38,-957.41 533.38,-951.41 539.38,-951.41 539.38,-951.41 792.61,-951.41 792.61,-951.41 798.61,-951.41 804.61,-957.41 804.61,-963.41 804.61,-963.41 804.61,-994.31 804.61,-994.31 804.61,-1000.31 798.61,-1006.31 792.61,-1006.31"/>
<text xml:space="preserve" text-anchor="middle" x="665.99" y="-988.18" font-family="Arial" font-size="11.50" fill="#102a43">WEBAGENT ORCHESTRATOR</text>
<text xml:space="preserve" text-anchor="middle" x="665.99" y="-974.68" font-family="Arial" font-size="11.50" fill="#102a43">bounded Observe &#45;&gt; Think &#45;&gt; Act &#45;&gt; Record loop</text>
<text xml:space="preserve" text-anchor="middle" x="665.99" y="-961.18" font-family="Arial" font-size="11.50" fill="#102a43">loop/strategy state + explicit CAPTCHA handling</text>
</g>
<!-- config&#45;&gt;agent -->
<g id="edge3" class="edge">
<title>config&#45;&gt;agent</title>
<path fill="none" stroke="#2563a6" stroke-width="1.25" d="M665.99,-1036.81C665.99,-1030.53 665.99,-1023.3 665.99,-1016.14"/>
<polygon fill="#2563a6" stroke="#2563a6" stroke-width="1.25" points="668.51,-1016.29 665.99,-1009.09 663.47,-1016.29 668.51,-1016.29"/>
</g>
<!-- observe -->
<g id="node6" class="node">
<title>observe</title>
<path fill="#e0f2fe" stroke="#155e75" stroke-width="1.4" d="M797.86,-920.41C797.86,-920.41 534.12,-920.41 534.12,-920.41 528.12,-920.41 522.12,-914.41 522.12,-908.41 522.12,-908.41 522.12,-882.01 522.12,-882.01 522.12,-876.01 528.12,-870.01 534.12,-870.01 534.12,-870.01 797.86,-870.01 797.86,-870.01 803.86,-870.01 809.86,-876.01 809.86,-882.01 809.86,-882.01 809.86,-908.41 809.86,-908.41 809.86,-914.41 803.86,-920.41 797.86,-920.41"/>
<text xml:space="preserve" text-anchor="middle" x="665.99" y="-903.23" font-family="Arial" font-size="10.50" fill="#102a43">OBSERVE STABLE PAGE</text>
<text xml:space="preserve" text-anchor="middle" x="665.99" y="-891.23" font-family="Arial" font-size="10.50" fill="#102a43">viewport PNG + rendered viewport/document projection</text>
<text xml:space="preserve" text-anchor="middle" x="665.99" y="-879.23" font-family="Arial" font-size="10.50" fill="#102a43">observation&#45;bound control references</text>
</g>
<!-- agent&#45;&gt;observe -->
<g id="edge5" class="edge">
<title>agent&#45;&gt;observe</title>
<path fill="none" stroke="#2563a6" stroke-width="1.25" d="M665.99,-950.67C665.99,-944.1 665.99,-937 665.99,-930.16"/>
<polygon fill="#2563a6" stroke="#2563a6" stroke-width="1.25" points="668.51,-930.16 665.99,-922.96 663.47,-930.16 668.51,-930.16"/>
</g>
<!-- browser -->
<g id="node5" class="node">
<title>browser</title>
<path fill="#e0f2fe" stroke="#155e75" stroke-width="1.4" d="M446.98,-914.41C446.98,-914.41 295,-914.41 295,-914.41 289,-914.41 283,-908.41 283,-902.41 283,-902.41 283,-888.01 283,-888.01 283,-882.01 289,-876.01 295,-876.01 295,-876.01 446.98,-876.01 446.98,-876.01 452.98,-876.01 458.98,-882.01 458.98,-888.01 458.98,-888.01 458.98,-902.41 458.98,-902.41 458.98,-908.41 452.98,-914.41 446.98,-914.41"/>
<text xml:space="preserve" text-anchor="middle" x="370.99" y="-897.23" font-family="Arial" font-size="10.50" fill="#102a43">PLAYWRIGHT CHROMIUM</text>
<text xml:space="preserve" text-anchor="middle" x="370.99" y="-885.23" font-family="Arial" font-size="10.50" fill="#102a43">page lifecycle + browser actions</text>
</g>
<!-- browser&#45;&gt;observe -->
<g id="edge4" class="edge">
<title>browser&#45;&gt;observe</title>
<path fill="none" stroke="#2563a6" stroke-width="1.25" d="M459.5,-895.21C476.35,-895.21 494.42,-895.21 512.61,-895.21"/>
<polygon fill="#2563a6" stroke="#2563a6" stroke-width="1.25" points="512.46,-897.73 519.66,-895.21 512.46,-892.69 512.46,-897.73"/>
<text xml:space="preserve" text-anchor="middle" x="490.55" y="-900.63" font-family="Arial" font-size="8.50" fill="#334e68">page</text>
</g>
<!-- state -->
<g id="node7" class="node">
<title>state</title>
<path fill="#e0f2fe" stroke="#155e75" stroke-width="1.4" d="M745.73,-839.01C745.73,-839.01 586.25,-839.01 586.25,-839.01 580.25,-839.01 574.25,-833.01 574.25,-827.01 574.25,-827.01 574.25,-812.61 574.25,-812.61 574.25,-806.61 580.25,-800.61 586.25,-800.61 586.25,-800.61 745.73,-800.61 745.73,-800.61 751.73,-800.61 757.73,-806.61 757.73,-812.61 757.73,-812.61 757.73,-827.01 757.73,-827.01 757.73,-833.01 751.73,-839.01 745.73,-839.01"/>
<text xml:space="preserve" text-anchor="middle" x="665.99" y="-821.83" font-family="Arial" font-size="10.50" fill="#102a43">BrowserState</text>
<text xml:space="preserve" text-anchor="middle" x="665.99" y="-809.83" font-family="Arial" font-size="10.50" fill="#102a43">scoped context + refs + metadata</text>
</g>
<!-- observe&#45;&gt;state -->
<g id="edge6" class="edge">
<title>observe&#45;&gt;state</title>
<path fill="none" stroke="#2563a6" stroke-width="1.25" d="M665.99,-869.36C665.99,-862.61 665.99,-855.26 665.99,-848.37"/>
<polygon fill="#2563a6" stroke="#2563a6" stroke-width="1.25" points="668.51,-848.46 665.99,-841.26 663.47,-848.46 668.51,-848.46"/>
</g>
<!-- planner -->
<g id="node10" class="node">
<title>planner</title>
<path fill="#eef2ff" stroke="#4f46e5" stroke-width="1.4" d="M776.11,-760.11C776.11,-760.11 555.88,-760.11 555.88,-760.11 549.88,-760.11 543.88,-754.11 543.88,-748.11 543.88,-748.11 543.88,-709.71 543.88,-709.71 543.88,-703.71 549.88,-697.71 555.88,-697.71 555.88,-697.71 776.11,-697.71 776.11,-697.71 782.11,-697.71 788.11,-703.71 788.11,-709.71 788.11,-709.71 788.11,-748.11 788.11,-748.11 788.11,-754.11 782.11,-760.11 776.11,-760.11"/>
<text xml:space="preserve" text-anchor="middle" x="665.99" y="-742.93" font-family="Arial" font-size="10.50" fill="#102a43">PLANNER</text>
<text xml:space="preserve" text-anchor="middle" x="665.99" y="-730.93" font-family="Arial" font-size="10.50" fill="#102a43">APIPlanner or StubPlanner</text>
<text xml:space="preserve" text-anchor="middle" x="665.99" y="-718.93" font-family="Arial" font-size="10.50" fill="#102a43">history + controller hints + exposed schemas</text>
<text xml:space="preserve" text-anchor="middle" x="665.99" y="-706.93" font-family="Arial" font-size="10.50" fill="#102a43">native tools &#45;&gt; JSON Schema &#45;&gt; prompt JSON</text>
</g>
<!-- state&#45;&gt;planner -->
<g id="edge8" class="edge">
<title>state&#45;&gt;planner</title>
<path fill="none" stroke="#2563a6" stroke-width="1.25" d="M665.99,-799.95C665.99,-791.03 665.99,-780.03 665.99,-769.4"/>
<polygon fill="#2563a6" stroke="#2563a6" stroke-width="1.25" points="668.51,-769.72 665.99,-762.52 663.47,-769.72 668.51,-769.72"/>
<text xml:space="preserve" text-anchor="middle" x="694.12" y="-777.53" font-family="Arial" font-size="8.50" fill="#334e68">plan one action</text>
</g>
<!-- registry -->
<g id="node8" class="node">
<title>registry</title>
<path fill="#f8fafc" stroke="#155e75" stroke-width="1.4" d="M171.86,-748.11C171.86,-748.11 28.13,-748.11 28.13,-748.11 22.12,-748.11 16.13,-742.11 16.13,-736.11 16.13,-736.11 16.13,-721.71 16.13,-721.71 16.13,-715.71 22.13,-709.71 28.13,-709.71 28.13,-709.71 171.86,-709.71 171.86,-709.71 177.86,-709.71 183.86,-715.71 183.86,-721.71 183.86,-721.71 183.86,-736.11 183.86,-736.11 183.86,-742.11 177.86,-748.11 171.86,-748.11"/>
<text xml:space="preserve" text-anchor="middle" x="99.99" y="-730.93" font-family="Arial" font-size="10.50" fill="#102a43">TOOL REGISTRY</text>
<text xml:space="preserve" text-anchor="middle" x="99.99" y="-718.93" font-family="Arial" font-size="10.50" fill="#102a43">67 auto&#45;discovered ToolSpecs</text>
</g>
<!-- exposure -->
<g id="node9" class="node">
<title>exposure</title>
<path fill="#fff7ed" stroke="#d97706" stroke-width="1.4" d="M432.73,-748.11C432.73,-748.11 267.25,-748.11 267.25,-748.11 261.25,-748.11 255.25,-742.11 255.25,-736.11 255.25,-736.11 255.25,-721.71 255.25,-721.71 255.25,-715.71 261.25,-709.71 267.25,-709.71 267.25,-709.71 432.73,-709.71 432.73,-709.71 438.73,-709.71 444.73,-715.71 444.73,-721.71 444.73,-721.71 444.73,-736.11 444.73,-736.11 444.73,-742.11 438.73,-748.11 432.73,-748.11"/>
<text xml:space="preserve" text-anchor="middle" x="349.99" y="-730.93" font-family="Arial" font-size="10.50" fill="#102a43">EXPOSURE FILTER</text>
<text xml:space="preserve" text-anchor="middle" x="349.99" y="-718.93" font-family="Arial" font-size="10.50" fill="#102a43">discovery mode &#45;&gt; one allowed set</text>
</g>
<!-- registry&#45;&gt;exposure -->
<g id="edge7" class="edge">
<title>registry&#45;&gt;exposure</title>
<path fill="none" stroke="#2563a6" stroke-width="1.25" d="M184.28,-728.91C204.04,-728.91 225.32,-728.91 245.83,-728.91"/>
<polygon fill="#2563a6" stroke="#2563a6" stroke-width="1.25" points="245.78,-731.43 252.98,-728.91 245.78,-726.39 245.78,-731.43"/>
<text xml:space="preserve" text-anchor="middle" x="219.55" y="-734.33" font-family="Arial" font-size="8.50" fill="#334e68">ToolSpecs</text>
</g>
<!-- exposure&#45;&gt;planner -->
<g id="edge9" class="edge">
<title>exposure&#45;&gt;planner</title>
<path fill="none" stroke="#d97706" stroke-width="1.25" d="M445.23,-728.91C473.35,-728.91 504.63,-728.91 534.6,-728.91"/>
<polygon fill="#d97706" stroke="#d97706" stroke-width="1.25" points="534.34,-731.43 541.54,-728.91 534.34,-726.39 534.34,-731.43"/>
<text xml:space="preserve" text-anchor="middle" x="494.3" y="-734.33" font-family="Arial" font-size="8.50" fill="#b45309">exposed schemas</text>
</g>
<!-- executor -->
<g id="node13" class="node">
<title>executor</title>
<path fill="#fef3c7" stroke="#d97706" stroke-width="1.8" d="M601.98,-520.81C601.98,-520.81 360,-520.81 360,-520.81 354,-520.81 348,-514.81 348,-508.81 348,-508.81 348,-494.41 348,-494.41 348,-488.41 354,-482.41 360,-482.41 360,-482.41 601.98,-482.41 601.98,-482.41 607.98,-482.41 613.98,-488.41 613.98,-494.41 613.98,-494.41 613.98,-508.81 613.98,-508.81 613.98,-514.81 607.98,-520.81 601.98,-520.81"/>
<text xml:space="preserve" text-anchor="middle" x="480.99" y="-503.63" font-family="Arial" font-size="10.50" fill="#102a43">TOOL EXECUTOR</text>
<text xml:space="preserve" text-anchor="middle" x="480.99" y="-491.63" font-family="Arial" font-size="10.50" fill="#102a43">exposure &#45;&gt; evidence &#45;&gt; risk &#45;&gt; timeout &#45;&gt; dispatch</text>
</g>
<!-- exposure&#45;&gt;executor -->
<g id="edge13" class="edge">
<title>exposure&#45;&gt;executor</title>
<path fill="none" stroke="#d97706" stroke-width="1.25" d="M360.93,-709.08C384.2,-669.08 438.62,-575.47 465.46,-529.31"/>
<polygon fill="#d97706" stroke="#d97706" stroke-width="1.25" points="467.59,-530.66 469.03,-523.17 463.24,-528.13 467.59,-530.66"/>
<text xml:space="preserve" text-anchor="middle" x="453.03" y="-607.63" font-family="Arial" font-size="8.50" fill="#b45309">same allowed set</text>
</g>
<!-- call -->
<g id="node11" class="node">
<title>call</title>
<path fill="#eef2ff" stroke="#4f46e5" stroke-width="1.4" d="M696.86,-666.71C696.86,-666.71 613.12,-666.71 613.12,-666.71 607.12,-666.71 601.12,-660.71 601.12,-654.71 601.12,-654.71 601.12,-642.71 601.12,-642.71 601.12,-636.71 607.12,-630.71 613.12,-630.71 613.12,-630.71 696.86,-630.71 696.86,-630.71 702.86,-630.71 708.86,-636.71 708.86,-642.71 708.86,-642.71 708.86,-654.71 708.86,-654.71 708.86,-660.71 702.86,-666.71 696.86,-666.71"/>
<text xml:space="preserve" text-anchor="middle" x="654.99" y="-644.73" font-family="Arial" font-size="10.50" fill="#102a43">validated ToolCall</text>
</g>
<!-- planner&#45;&gt;call -->
<g id="edge10" class="edge">
<title>planner&#45;&gt;call</title>
<path fill="none" stroke="#4f46e5" stroke-width="1.25" d="M661.71,-697.45C660.71,-690.37 659.66,-682.9 658.69,-676.02"/>
<polygon fill="#4f46e5" stroke="#4f46e5" stroke-width="1.25" points="661.2,-675.75 657.7,-668.97 656.21,-676.45 661.2,-675.75"/>
</g>
<!-- pending -->
<g id="node14" class="node">
<title>pending</title>
<path fill="#fef3c7" stroke="#d97706" stroke-width="1.4" d="M709.48,-590.21C709.48,-590.21 536.5,-590.21 536.5,-590.21 530.5,-590.21 524.5,-584.21 524.5,-578.21 524.5,-578.21 524.5,-563.81 524.5,-563.81 524.5,-557.81 530.5,-551.81 536.5,-551.81 536.5,-551.81 709.48,-551.81 709.48,-551.81 715.48,-551.81 721.48,-557.81 721.48,-563.81 721.48,-563.81 721.48,-578.21 721.48,-578.21 721.48,-584.21 715.48,-590.21 709.48,-590.21"/>
<text xml:space="preserve" text-anchor="middle" x="622.99" y="-573.03" font-family="Arial" font-size="10.50" fill="#102a43">WRITE&#45;AHEAD CHECKPOINT</text>
<text xml:space="preserve" text-anchor="middle" x="622.99" y="-561.03" font-family="Arial" font-size="10.50" fill="#102a43">set pending_action before execution</text>
</g>
<!-- call&#45;&gt;pending -->
<g id="edge11" class="edge">
<title>call&#45;&gt;pending</title>
<path fill="none" stroke="#2563a6" stroke-width="1.25" d="M647.57,-630.15C643.67,-620.94 638.82,-609.44 634.45,-599.12"/>
<polygon fill="#2563a6" stroke="#2563a6" stroke-width="1.25" points="636.79,-598.18 631.67,-592.53 632.15,-600.15 636.79,-598.18"/>
</g>
<!-- policies -->
<g id="node12" class="node">
<title>policies</title>
<path fill="#fff7ed" stroke="#d97706" stroke-width="1.4" d="M269.98,-520.81C269.98,-520.81 106,-520.81 106,-520.81 100,-520.81 94,-514.81 94,-508.81 94,-508.81 94,-494.41 94,-494.41 94,-488.41 100,-482.41 106,-482.41 106,-482.41 269.98,-482.41 269.98,-482.41 275.98,-482.41 281.98,-488.41 281.98,-494.41 281.98,-494.41 281.98,-508.81 281.98,-508.81 281.98,-514.81 275.98,-520.81 269.98,-520.81"/>
<text xml:space="preserve" text-anchor="middle" x="187.99" y="-503.63" font-family="Arial" font-size="10.50" fill="#102a43">RUNTIME POLICIES</text>
<text xml:space="preserve" text-anchor="middle" x="187.99" y="-491.63" font-family="Arial" font-size="10.50" fill="#102a43">evidence policy + action&#45;risk policy</text>
</g>
<!-- policies&#45;&gt;executor -->
<g id="edge14" class="edge">
<title>policies&#45;&gt;executor</title>
<path fill="none" stroke="#2563a6" stroke-width="1.25" d="M282.31,-501.61C300.22,-501.61 319.32,-501.61 338.34,-501.61"/>
<polygon fill="#2563a6" stroke="#2563a6" stroke-width="1.25" points="338.27,-504.13 345.47,-501.61 338.27,-499.09 338.27,-504.13"/>
<text xml:space="preserve" text-anchor="middle" x="314.99" y="-507.03" font-family="Arial" font-size="8.50" fill="#334e68">authorize</text>
</g>
<!-- tools -->
<g id="node15" class="node">
<title>tools</title>
<path fill="#f8fafc" stroke="#155e75" stroke-width="1.4" d="M561.48,-435.91C561.48,-435.91 400.5,-435.91 400.5,-435.91 394.5,-435.91 388.5,-429.91 388.5,-423.91 388.5,-423.91 388.5,-409.51 388.5,-409.51 388.5,-403.51 394.5,-397.51 400.5,-397.51 400.5,-397.51 561.48,-397.51 561.48,-397.51 567.48,-397.51 573.48,-403.51 573.48,-409.51 573.48,-409.51 573.48,-423.91 573.48,-423.91 573.48,-429.91 567.48,-435.91 561.48,-435.91"/>
<text xml:space="preserve" text-anchor="middle" x="480.99" y="-418.73" font-family="Arial" font-size="10.50" fill="#102a43">BUILT&#45;IN TOOLS</text>
<text xml:space="preserve" text-anchor="middle" x="480.99" y="-406.73" font-family="Arial" font-size="10.50" fill="#102a43">browser / search / PDF / file / task</text>
</g>
<!-- executor&#45;&gt;tools -->
<g id="edge15" class="edge">
<title>executor&#45;&gt;tools</title>
<path fill="none" stroke="#2563a6" stroke-width="1.25" d="M480.99,-481.79C480.99,-470.98 480.99,-457.21 480.99,-445.2"/>
<polygon fill="#2563a6" stroke="#2563a6" stroke-width="1.25" points="483.51,-445.53 480.99,-438.33 478.47,-445.53 483.51,-445.53"/>
<text xml:space="preserve" text-anchor="middle" x="517.37" y="-459.33" font-family="Arial" font-size="8.50" fill="#334e68">authorized dispatch</text>
</g>
<!-- pending&#45;&gt;executor -->
<g id="edge12" class="edge">
<title>pending&#45;&gt;executor</title>
<path fill="none" stroke="#2563a6" stroke-width="1.25" d="M583.44,-551.23C566.5,-543.19 546.57,-533.73 528.81,-525.3"/>
<polygon fill="#2563a6" stroke="#2563a6" stroke-width="1.25" points="530.12,-523.14 522.53,-522.32 527.96,-527.69 530.12,-523.14"/>
</g>
<!-- documents -->
<g id="node16" class="node">
<title>documents</title>
<path fill="#f5f3ff" stroke="#7c3aed" stroke-width="1.4" d="M938.36,-441.91C938.36,-441.91 677.62,-441.91 677.62,-441.91 671.62,-441.91 665.62,-435.91 665.62,-429.91 665.62,-429.91 665.62,-403.51 665.62,-403.51 665.62,-397.51 671.62,-391.51 677.62,-391.51 677.62,-391.51 938.36,-391.51 938.36,-391.51 944.36,-391.51 950.36,-397.51 950.36,-403.51 950.36,-403.51 950.36,-429.91 950.36,-429.91 950.36,-435.91 944.36,-441.91 938.36,-441.91"/>
<text xml:space="preserve" text-anchor="middle" x="807.99" y="-424.73" font-family="Arial" font-size="10.50" fill="#102a43">DOCUMENT INTELLIGENCE</text>
<text xml:space="preserve" text-anchor="middle" x="807.99" y="-412.73" font-family="Arial" font-size="10.50" fill="#102a43">profile &#45;&gt; cloud cascade &#45;&gt; quality gate &#45;&gt; local fallback</text>
<text xml:space="preserve" text-anchor="middle" x="807.99" y="-400.73" font-family="Arial" font-size="10.50" fill="#102a43">caption&#45;grounded Figure extraction + vision analysis</text>
</g>
<!-- tools&#45;&gt;documents -->
<g id="edge16" class="edge">
<title>tools&#45;&gt;documents</title>
<path fill="none" stroke="#7c3aed" stroke-width="1.25" d="M573.91,-406.24C589.54,-404.48 600.8,-403.21 600.8,-403.21 600.8,-403.21 638.3,-403.21 638.3,-403.21 638.3,-403.21 645.28,-403.76 656.4,-404.65"/>
<polygon fill="#7c3aed" stroke="#7c3aed" stroke-width="1.25" points="655.93,-407.14 663.3,-405.19 656.33,-402.11 655.93,-407.14"/>
<text xml:space="preserve" text-anchor="middle" x="619.55" y="-405.63" font-family="Arial" font-size="8.50" fill="#7c3aed">PDF tools</text>
</g>
<!-- tool_result -->
<g id="node17" class="node">
<title>tool_result</title>
<path fill="#ecfdf5" stroke="#15803d" stroke-width="1.4" d="M548.36,-360.51C548.36,-360.51 413.62,-360.51 413.62,-360.51 407.62,-360.51 401.62,-354.51 401.62,-348.51 401.62,-348.51 401.62,-336.51 401.62,-336.51 401.62,-330.51 407.62,-324.51 413.62,-324.51 413.62,-324.51 548.36,-324.51 548.36,-324.51 554.36,-324.51 560.36,-330.51 560.36,-336.51 560.36,-336.51 560.36,-348.51 560.36,-348.51 560.36,-354.51 554.36,-360.51 548.36,-360.51"/>
<text xml:space="preserve" text-anchor="middle" x="480.99" y="-338.53" font-family="Arial" font-size="10.50" fill="#102a43">ToolResult + policy/risk audit</text>
</g>
<!-- tools&#45;&gt;tool_result -->
<g id="edge18" class="edge">
<title>tools&#45;&gt;tool_result</title>
<path fill="none" stroke="#2563a6" stroke-width="1.25" d="M480.99,-397.11C480.99,-388.8 480.99,-378.86 480.99,-369.8"/>
<polygon fill="#2563a6" stroke="#2563a6" stroke-width="1.25" points="483.51,-369.89 480.99,-362.69 478.47,-369.89 483.51,-369.89"/>
</g>
<!-- documents&#45;&gt;tools -->
<g id="edge17" class="edge">
<title>documents&#45;&gt;tools</title>
<path fill="none" stroke="#7c3aed" stroke-width="1.25" d="M665.12,-416.71C637.32,-416.71 608.72,-416.71 582.58,-416.71"/>
<polygon fill="#7c3aed" stroke="#7c3aed" stroke-width="1.25" points="582.91,-414.19 575.71,-416.71 582.91,-419.23 582.91,-414.19"/>
<text xml:space="preserve" text-anchor="middle" x="619.55" y="-422.13" font-family="Arial" font-size="8.50" fill="#7c3aed">structured result</text>
</g>
<!-- record -->
<g id="node18" class="node">
<title>record</title>
<path fill="#ecfdf5" stroke="#15803d" stroke-width="1.4" d="M617.73,-293.51C617.73,-293.51 344.25,-293.51 344.25,-293.51 338.25,-293.51 332.25,-287.51 332.25,-281.51 332.25,-281.51 332.25,-267.11 332.25,-267.11 332.25,-261.11 338.25,-255.11 344.25,-255.11 344.25,-255.11 617.73,-255.11 617.73,-255.11 623.73,-255.11 629.73,-261.11 629.73,-267.11 629.73,-267.11 629.73,-281.51 629.73,-281.51 629.73,-287.51 623.73,-293.51 617.73,-293.51"/>
<text xml:space="preserve" text-anchor="middle" x="480.99" y="-276.33" font-family="Arial" font-size="10.50" fill="#102a43">RECORD STEP</text>
<text xml:space="preserve" text-anchor="middle" x="480.99" y="-264.33" font-family="Arial" font-size="10.50" fill="#102a43">paired post observation + history/hooks + strategy update</text>
</g>
<!-- tool_result&#45;&gt;record -->
<g id="edge19" class="edge">
<title>tool_result&#45;&gt;record</title>
<path fill="none" stroke="#2563a6" stroke-width="1.25" d="M480.99,-324.11C480.99,-317.54 480.99,-309.89 480.99,-302.63"/>
<polygon fill="#2563a6" stroke="#2563a6" stroke-width="1.25" points="483.51,-302.83 480.99,-295.63 478.47,-302.83 483.51,-302.83"/>
</g>
<!-- checkpoint -->
<g id="node19" class="node">
<title>checkpoint</title>
<path fill="#ecfdf5" stroke="#15803d" stroke-width="1.4" d="M295.98,-208.61C295.98,-208.61 12,-208.61 12,-208.61 6,-208.61 0,-202.61 0,-196.61 0,-196.61 0,-182.21 0,-182.21 0,-176.21 6,-170.21 12,-170.21 12,-170.21 295.98,-170.21 295.98,-170.21 301.98,-170.21 307.98,-176.21 307.98,-182.21 307.98,-182.21 307.98,-196.61 307.98,-196.61 307.98,-202.61 301.98,-208.61 295.98,-208.61"/>
<text xml:space="preserve" text-anchor="middle" x="153.99" y="-191.43" font-family="Arial" font-size="10.50" fill="#102a43">COMMITTED CHECKPOINT</text>
<text xml:space="preserve" text-anchor="middle" x="153.99" y="-179.43" font-family="Arial" font-size="10.50" fill="#102a43">clear pending_action + persist next_step and recovery state</text>
</g>
<!-- record&#45;&gt;checkpoint -->
<g id="edge20" class="edge">
<title>record&#45;&gt;checkpoint</title>
<path fill="none" stroke="#2563a6" stroke-width="1.25" d="M406.79,-254.49C356.27,-241.69 289.35,-224.72 237.06,-211.46"/>
<polygon fill="#2563a6" stroke="#2563a6" stroke-width="1.25" points="237.9,-209.08 230.3,-209.75 236.66,-213.96 237.9,-209.08"/>
<text xml:space="preserve" text-anchor="middle" x="360.28" y="-232.03" font-family="Arial" font-size="8.50" fill="#334e68">commit</text>
</g>
<!-- evidence -->
<g id="node20" class="node">
<title>evidence</title>
<path fill="#ecfdf5" stroke="#15803d" stroke-width="1.4" d="M610.23,-214.61C610.23,-214.61 351.75,-214.61 351.75,-214.61 345.75,-214.61 339.75,-208.61 339.75,-202.61 339.75,-202.61 339.75,-176.21 339.75,-176.21 339.75,-170.21 345.75,-164.21 351.75,-164.21 351.75,-164.21 610.23,-164.21 610.23,-164.21 616.23,-164.21 622.23,-170.21 622.23,-176.21 622.23,-176.21 622.23,-202.61 622.23,-202.61 622.23,-208.61 616.23,-214.61 610.23,-214.61"/>
<text xml:space="preserve" text-anchor="middle" x="480.99" y="-197.43" font-family="Arial" font-size="10.50" fill="#102a43">AUDIT EVIDENCE</text>
<text xml:space="preserve" text-anchor="middle" x="480.99" y="-185.43" font-family="Arial" font-size="10.50" fill="#102a43">paired pre/post observations + immutable turn records</text>
<text xml:space="preserve" text-anchor="middle" x="480.99" y="-173.43" font-family="Arial" font-size="10.50" fill="#102a43">versioned trace + content&#45;addressed blobs</text>
</g>
<!-- record&#45;&gt;evidence -->
<g id="edge21" class="edge">
<title>record&#45;&gt;evidence</title>
<path fill="none" stroke="#2563a6" stroke-width="1.25" d="M480.99,-254.49C480.99,-245.48 480.99,-234.4 480.99,-224.01"/>
<polygon fill="#2563a6" stroke="#2563a6" stroke-width="1.25" points="483.51,-224.21 480.99,-217.01 478.47,-224.21 483.51,-224.21"/>
<text xml:space="preserve" text-anchor="middle" x="493.74" y="-232.03" font-family="Arial" font-size="8.50" fill="#334e68">persist</text>
</g>
<!-- result -->
<g id="node21" class="node">
<title>result</title>
<path fill="#dcfce7" stroke="#15803d" stroke-width="1.4" d="M819.36,-208.61C819.36,-208.61 666.62,-208.61 666.62,-208.61 660.62,-208.61 654.62,-202.61 654.62,-196.61 654.62,-196.61 654.62,-182.21 654.62,-182.21 654.62,-176.21 660.62,-170.21 666.62,-170.21 666.62,-170.21 819.36,-170.21 819.36,-170.21 825.36,-170.21 831.36,-176.21 831.36,-182.21 831.36,-182.21 831.36,-196.61 831.36,-196.61 831.36,-202.61 825.36,-208.61 819.36,-208.61"/>
<text xml:space="preserve" text-anchor="middle" x="742.99" y="-191.43" font-family="Arial" font-size="10.50" fill="#102a43">TERMINAL OUTPUT</text>
<text xml:space="preserve" text-anchor="middle" x="742.99" y="-179.43" font-family="Arial" font-size="10.50" fill="#102a43">summary + selected attachment</text>
</g>
<!-- record&#45;&gt;result -->
<g id="edge22" class="edge">
<title>record&#45;&gt;result</title>
<path fill="none" stroke="#2563a6" stroke-width="1.25" d="M540.44,-254.49C580.41,-241.85 633.21,-225.14 674.88,-211.96"/>
<polygon fill="#2563a6" stroke="#2563a6" stroke-width="1.25" points="675.41,-214.43 681.52,-209.86 673.89,-209.63 675.41,-214.43"/>
<text xml:space="preserve" text-anchor="middle" x="639.37" y="-232.03" font-family="Arial" font-size="8.50" fill="#334e68">done / terminal</text>
</g>
<!-- verifier -->
<g id="node22" class="node">
<title>verifier</title>
<path fill="#f8fafc" stroke="#155e75" stroke-width="1.4" d="M603.86,-133.21C603.86,-133.21 454.12,-133.21 454.12,-133.21 448.12,-133.21 442.12,-127.21 442.12,-121.21 442.12,-121.21 442.12,-106.81 442.12,-106.81 442.12,-100.81 448.12,-94.81 454.12,-94.81 454.12,-94.81 603.86,-94.81 603.86,-94.81 609.86,-94.81 615.86,-100.81 615.86,-106.81 615.86,-106.81 615.86,-121.21 615.86,-121.21 615.86,-127.21 609.86,-133.21 603.86,-133.21"/>
<text xml:space="preserve" text-anchor="middle" x="528.99" y="-116.03" font-family="Arial" font-size="10.50" fill="#102a43">Trace / anti&#45;shortcut verification</text>
<text xml:space="preserve" text-anchor="middle" x="528.99" y="-104.03" font-family="Arial" font-size="10.50" fill="#102a43">(strict evaluation)</text>
</g>
<!-- evidence&#45;&gt;verifier -->
<g id="edge23" class="edge">
<title>evidence&#45;&gt;verifier</title>
<path fill="none" stroke="#2563a6" stroke-width="1.25" d="M497.24,-163.56C501.95,-156.35 507.11,-148.46 511.88,-141.17"/>
<polygon fill="#2563a6" stroke="#2563a6" stroke-width="1.25" points="513.99,-142.55 515.82,-135.15 509.77,-139.79 513.99,-142.55"/>
</g>
<!-- evaluator -->
<g id="node23" class="node">
<title>evaluator</title>
<path fill="#f8fafc" stroke="#155e75" stroke-width="1.4" d="M802.36,-133.21C802.36,-133.21 667.62,-133.21 667.62,-133.21 661.62,-133.21 655.62,-127.21 655.62,-121.21 655.62,-121.21 655.62,-106.81 655.62,-106.81 655.62,-100.81 661.62,-94.81 667.62,-94.81 667.62,-94.81 802.36,-94.81 802.36,-94.81 808.36,-94.81 814.36,-100.81 814.36,-106.81 814.36,-106.81 814.36,-121.21 814.36,-121.21 814.36,-127.21 808.36,-133.21 802.36,-133.21"/>
<text xml:space="preserve" text-anchor="middle" x="734.99" y="-116.03" font-family="Arial" font-size="10.50" fill="#102a43">Independent task assertions</text>
<text xml:space="preserve" text-anchor="middle" x="734.99" y="-104.03" font-family="Arial" font-size="10.50" fill="#102a43">(evaluation runner)</text>
</g>
<!-- result&#45;&gt;evaluator -->
<g id="edge24" class="edge">
<title>result&#45;&gt;evaluator</title>
<path fill="none" stroke="#2563a6" stroke-width="1.25" d="M740.97,-169.88C740.07,-161.6 738.99,-151.67 737.99,-142.54"/>
<polygon fill="#2563a6" stroke="#2563a6" stroke-width="1.25" points="740.53,-142.54 737.24,-135.66 735.52,-143.09 740.53,-142.54"/>
</g>
<!-- verdict -->
<g id="node24" class="node">
<title>verdict</title>
<ellipse fill="#dcfce7" stroke="#15803d" stroke-width="1.8" cx="627.99" cy="-27.15" rx="144.06" ry="27.15"/>
<text xml:space="preserve" text-anchor="middle" x="627.99" y="-29.18" font-family="Arial" font-size="10.50" fill="#102a43">OPTIONAL EVALUATION RECORDS</text>
<text xml:space="preserve" text-anchor="middle" x="627.99" y="-17.18" font-family="Arial" font-size="10.50" fill="#102a43">verification.json + evaluation/task.json</text>
</g>
<!-- verifier&#45;&gt;verdict -->
<g id="edge25" class="edge">
<title>verifier&#45;&gt;verdict</title>
<path fill="none" stroke="#15803d" stroke-width="1.25" d="M550.96,-94.17C562.6,-84.2 577.22,-71.66 590.59,-60.21"/>
<polygon fill="#15803d" stroke="#15803d" stroke-width="1.25" points="592.18,-62.16 596.01,-55.56 588.9,-58.34 592.18,-62.16"/>
<text xml:space="preserve" text-anchor="middle" x="608.12" y="-71.73" font-family="Arial" font-size="8.50" fill="#15803d">protocol validity</text>
</g>
<!-- evaluator&#45;&gt;verdict -->
<g id="edge26" class="edge">
<title>evaluator&#45;&gt;verdict</title>
<path fill="none" stroke="#15803d" stroke-width="1.25" d="M711.24,-94.17C698.54,-84.1 682.57,-71.43 668.01,-59.89"/>
<polygon fill="#15803d" stroke="#15803d" stroke-width="1.25" points="669.69,-58.01 662.49,-55.51 666.56,-61.96 669.69,-58.01"/>
<text xml:space="preserve" text-anchor="middle" x="727.07" y="-71.73" font-family="Arial" font-size="8.50" fill="#15803d">semantic task pass</text>
</g>
</g>
</svg>
