<?xml version="1.0" encoding="UTF-8" standalone="no"?>
<!DOCTYPE svg PUBLIC "-//W3C//DTD SVG 1.1//EN"
 "http://www.w3.org/Graphics/SVG/1.1/DTD/svg11.dtd">
<!-- Generated by graphviz version 15.1.1 (20260805.0921)
 -->
<!-- Title: WebAgentArchitecture Pages: 1 -->
<svg width="1420pt" height="663pt"
 viewBox="0.00 0.00 1420.00 663.00" xmlns="http://www.w3.org/2000/svg" xmlns:xlink="http://www.w3.org/1999/xlink">
<g id="graph0" class="graph" transform="scale(1 1) rotate(0) translate(15.84 646.84)">
<title>WebAgentArchitecture</title>
<polygon fill="white" stroke="none" points="-15.84,15.84 -15.84,-646.84 1404.19,-646.84 1404.19,15.84 -15.84,15.84"/>
<text xml:space="preserve" text-anchor="middle" x="694.17" y="-609.9" font-family="Arial" font-size="18.00">WebAgent: policy&#45;bound planning, browser execution, and auditable evidence</text>
<!-- task -->
<g id="node1" class="node">
<title>task</title>
<path fill="#e0f2fe" stroke="#164e63" stroke-width="1.35" d="M772.22,-602C772.22,-602 669.62,-602 669.62,-602 663.62,-602 657.62,-596 657.62,-590 657.62,-590 657.62,-578 657.62,-578 657.62,-572 663.62,-566 669.62,-566 669.62,-566 772.22,-566 772.22,-566 778.22,-566 784.22,-572 784.22,-578 784.22,-578 784.22,-590 784.22,-590 784.22,-596 778.22,-602 772.22,-602"/>
<text xml:space="preserve" text-anchor="middle" x="720.92" y="-580.02" font-family="Arial" font-size="10.50" fill="#102a43">Natural&#45;language task</text>
</g>
<!-- cli -->
<g id="node2" class="node">
<title>cli</title>
<path fill="#f8fafc" stroke="#164e63" stroke-width="1.35" d="M778.97,-527C778.97,-527 662.88,-527 662.88,-527 656.88,-527 650.88,-521 650.88,-515 650.88,-515 650.88,-503 650.88,-503 650.88,-497 656.88,-491 662.88,-491 662.88,-491 778.97,-491 778.97,-491 784.97,-491 790.97,-497 790.97,-503 790.97,-503 790.97,-515 790.97,-515 790.97,-521 784.97,-527 778.97,-527"/>
<text xml:space="preserve" text-anchor="middle" x="720.92" y="-505.02" font-family="Arial" font-size="10.50" fill="#102a43">CLI / benchmark adapter</text>
</g>
<!-- task&#45;&gt;cli -->
<g id="edge1" class="edge">
<title>task&#45;&gt;cli</title>
<path fill="none" stroke="#2563a6" stroke-width="1.25" d="M720.92,-565.33C720.92,-556.63 720.92,-545.97 720.92,-536.33"/>
<polygon fill="#2563a6" stroke="#2563a6" stroke-width="1.25" points="723.38,-536.4 720.93,-529.4 718.48,-536.4 723.38,-536.4"/>
</g>
<!-- config -->
<g id="node3" class="node">
<title>config</title>
<path fill="#ecfdf5" stroke="#15803d" stroke-width="1.35" d="M804.47,-452C804.47,-452 637.38,-452 637.38,-452 631.38,-452 625.38,-446 625.38,-440 625.38,-440 625.38,-425.6 625.38,-425.6 625.38,-419.6 631.38,-413.6 637.38,-413.6 637.38,-413.6 804.47,-413.6 804.47,-413.6 810.47,-413.6 816.47,-419.6 816.47,-425.6 816.47,-425.6 816.47,-440 816.47,-440 816.47,-446 810.47,-452 804.47,-452"/>
<text xml:space="preserve" text-anchor="middle" x="720.92" y="-434.82" font-family="Arial" font-size="10.50" fill="#102a43">AgentConfig</text>
<text xml:space="preserve" text-anchor="middle" x="720.92" y="-422.82" font-family="Arial" font-size="10.50" fill="#102a43">validated settings + discovery mode</text>
</g>
<!-- cli&#45;&gt;config -->
<g id="edge2" class="edge">
<title>cli&#45;&gt;config</title>
<path fill="none" stroke="#2563a6" stroke-width="1.25" d="M720.92,-490.42C720.92,-481.69 720.92,-470.95 720.92,-461.17"/>
<polygon fill="#2563a6" stroke="#2563a6" stroke-width="1.25" points="723.38,-461.45 720.93,-454.45 718.48,-461.45 723.38,-461.45"/>
</g>
<!-- planner -->
<g id="node4" class="node">
<title>planner</title>
<path fill="#eef2ff" stroke="#6366f1" stroke-width="1.35" d="M348.35,-356.1C348.35,-356.1 51.5,-356.1 51.5,-356.1 45.5,-356.1 39.5,-350.1 39.5,-344.1 39.5,-344.1 39.5,-317.7 39.5,-317.7 39.5,-311.7 45.5,-305.7 51.5,-305.7 51.5,-305.7 348.35,-305.7 348.35,-305.7 354.35,-305.7 360.35,-311.7 360.35,-317.7 360.35,-317.7 360.35,-344.1 360.35,-344.1 360.35,-350.1 354.35,-356.1 348.35,-356.1"/>
<text xml:space="preserve" text-anchor="middle" x="199.92" y="-338.92" font-family="Arial" font-size="10.50" fill="#102a43">PLANNER</text>
<text xml:space="preserve" text-anchor="middle" x="199.92" y="-326.92" font-family="Arial" font-size="10.50" fill="#102a43">Planner factory &#45;&gt; APIPlanner or StubPlanner</text>
<text xml:space="preserve" text-anchor="middle" x="199.92" y="-314.92" font-family="Arial" font-size="10.50" fill="#102a43">API auto ladder: native tools &#45;&gt; JSON Schema &#45;&gt; prompt JSON</text>
</g>
<!-- config&#45;&gt;planner -->
<g id="edge4" class="edge">
<title>config&#45;&gt;planner</title>
<path fill="none" stroke="#64748b" stroke-width="1.25" stroke-dasharray="5,2" d="M624.76,-413.36C544.29,-397.93 428.47,-375.72 338.08,-358.39"/>
<polygon fill="#64748b" stroke="#64748b" stroke-width="1.25" points="338.6,-356 331.27,-357.08 337.68,-360.81 338.6,-356"/>
<text xml:space="preserve" text-anchor="middle" x="553.54" y="-386.52" font-family="Arial" font-size="8.50" fill="#334e68">provider settings</text>
</g>
<!-- agent -->
<g id="node5" class="node">
<title>agent</title>
<path fill="#ccfbf1" stroke="#0f766e" stroke-width="2" d="M851.35,-365.1C851.35,-365.1 590.5,-365.1 590.5,-365.1 584.5,-365.1 578.5,-359.1 578.5,-353.1 578.5,-353.1 578.5,-308.7 578.5,-308.7 578.5,-302.7 584.5,-296.7 590.5,-296.7 590.5,-296.7 851.35,-296.7 851.35,-296.7 857.35,-296.7 863.35,-302.7 863.35,-308.7 863.35,-308.7 863.35,-353.1 863.35,-353.1 863.35,-359.1 857.35,-365.1 851.35,-365.1"/>
<text xml:space="preserve" text-anchor="middle" x="720.92" y="-346.97" font-family="Arial" font-size="11.50" fill="#102a43">WEBAGENT ORCHESTRATION</text>
<text xml:space="preserve" text-anchor="middle" x="720.92" y="-333.47" font-family="Arial" font-size="11.50" fill="#102a43">Observe &#45;&gt; Think &#45;&gt; Act &#45;&gt; Record</text>
<text xml:space="preserve" text-anchor="middle" x="720.92" y="-319.97" font-family="Arial" font-size="11.50" fill="#102a43">LoopDetector + StrategyManager + bounded state</text>
<text xml:space="preserve" text-anchor="middle" x="720.92" y="-306.47" font-family="Arial" font-size="11.50" fill="#102a43">CAPTCHA: report/wait or fail closed</text>
</g>
<!-- config&#45;&gt;agent -->
<g id="edge3" class="edge">
<title>config&#45;&gt;agent</title>
<path fill="none" stroke="#2563a6" stroke-width="1.25" d="M720.92,-413.01C720.92,-402.16 720.92,-388.05 720.92,-374.64"/>
<polygon fill="#2563a6" stroke="#2563a6" stroke-width="1.25" points="723.38,-374.86 720.93,-367.86 718.48,-374.86 723.38,-374.86"/>
<text xml:space="preserve" text-anchor="middle" x="745.3" y="-386.52" font-family="Arial" font-size="8.50" fill="#334e68">construct run</text>
</g>
<!-- browser -->
<g id="node6" class="node">
<title>browser</title>
<path fill="#e0f2fe" stroke="#164e63" stroke-width="1.35" d="M1274.97,-356.1C1274.97,-356.1 996.88,-356.1 996.88,-356.1 990.88,-356.1 984.88,-350.1 984.88,-344.1 984.88,-344.1 984.88,-317.7 984.88,-317.7 984.88,-311.7 990.88,-305.7 996.88,-305.7 996.88,-305.7 1274.97,-305.7 1274.97,-305.7 1280.97,-305.7 1286.97,-311.7 1286.97,-317.7 1286.97,-317.7 1286.97,-344.1 1286.97,-344.1 1286.97,-350.1 1280.97,-356.1 1274.97,-356.1"/>
<text xml:space="preserve" text-anchor="middle" x="1135.92" y="-338.92" font-family="Arial" font-size="10.50" fill="#102a43">BROWSER STATE</text>
<text xml:space="preserve" text-anchor="middle" x="1135.92" y="-326.92" font-family="Arial" font-size="10.50" fill="#102a43">Playwright Chromium</text>
<text xml:space="preserve" text-anchor="middle" x="1135.92" y="-314.92" font-family="Arial" font-size="10.50" fill="#102a43">stability wait + URL + DOM snapshot + adaptive screenshot</text>
</g>
<!-- config&#45;&gt;browser -->
<g id="edge5" class="edge">
<title>config&#45;&gt;browser</title>
<path fill="none" stroke="#64748b" stroke-width="1.25" stroke-dasharray="5,2" d="M798.98,-413.01C862.5,-397.72 952.95,-375.95 1024.15,-358.81"/>
<polygon fill="#64748b" stroke="#64748b" stroke-width="1.25" points="1024.66,-361.2 1030.89,-357.18 1023.51,-356.44 1024.66,-361.2"/>
<text xml:space="preserve" text-anchor="middle" x="946.73" y="-386.52" font-family="Arial" font-size="8.50" fill="#334e68">browser settings</text>
</g>
<!-- planner&#45;&gt;agent -->
<g id="edge7" class="edge">
<title>planner&#45;&gt;agent</title>
<path fill="none" stroke="#6366f1" stroke-width="1.25" d="M361.01,-321.69C402.67,-319.31 436.05,-317.4 436.05,-317.4 436.05,-317.4 502.8,-317.4 502.8,-317.4 502.8,-317.4 532,-319.21 569.03,-321.5"/>
<polygon fill="#6366f1" stroke="#6366f1" stroke-width="1.25" points="568.53,-323.92 575.67,-321.91 568.84,-319.03 568.53,-323.92"/>
<text xml:space="preserve" text-anchor="middle" x="469.42" y="-319.82" font-family="Arial" font-size="8.50" fill="#4f46e5">validated ToolCall</text>
</g>
<!-- agent&#45;&gt;planner -->
<g id="edge6" class="edge">
<title>agent&#45;&gt;planner</title>
<path fill="none" stroke="#2563a6" stroke-width="1.25" d="M577.86,-330.9C513.39,-330.9 436.77,-330.9 369.44,-330.9"/>
<polygon fill="#2563a6" stroke="#2563a6" stroke-width="1.25" points="369.74,-328.45 362.74,-330.9 369.74,-333.35 369.74,-328.45"/>
<text xml:space="preserve" text-anchor="middle" x="469.42" y="-336.32" font-family="Arial" font-size="8.50" fill="#334e68">task + BrowserState + history + exposed schemas</text>
</g>
<!-- agent&#45;&gt;browser -->
<g id="edge9" class="edge">
<title>agent&#45;&gt;browser</title>
<path fill="none" stroke="#2563a6" stroke-width="1.25" d="M864.33,-330.9C900.22,-330.9 938.96,-330.9 975.62,-330.9"/>
<polygon fill="#2563a6" stroke="#2563a6" stroke-width="1.25" points="975.5,-333.35 982.5,-330.9 975.5,-328.45 975.5,-333.35"/>
<text xml:space="preserve" text-anchor="middle" x="924.11" y="-336.32" font-family="Arial" font-size="8.50" fill="#334e68">observe / browser action</text>
</g>
<!-- executor -->
<g id="node9" class="node">
<title>executor</title>
<path fill="#fef3c7" stroke="#d97706" stroke-width="1.35" d="M1013.22,-242.2C1013.22,-242.2 718.62,-242.2 718.62,-242.2 712.62,-242.2 706.62,-236.2 706.62,-230.2 706.62,-230.2 706.62,-215.8 706.62,-215.8 706.62,-209.8 712.62,-203.8 718.62,-203.8 718.62,-203.8 1013.22,-203.8 1013.22,-203.8 1019.22,-203.8 1025.22,-209.8 1025.22,-215.8 1025.22,-215.8 1025.22,-230.2 1025.22,-230.2 1025.22,-236.2 1019.22,-242.2 1013.22,-242.2"/>
<text xml:space="preserve" text-anchor="middle" x="865.92" y="-225.03" font-family="Arial" font-size="10.50" fill="#102a43">TOOL EXECUTOR</text>
<text xml:space="preserve" text-anchor="middle" x="865.92" y="-213.03" font-family="Arial" font-size="10.50" fill="#102a43">validate &#45;&gt; execution policy &#45;&gt; risk policy &#45;&gt; timeout &#45;&gt; dispatch</text>
</g>
<!-- agent&#45;&gt;executor -->
<g id="edge13" class="edge">
<title>agent&#45;&gt;executor</title>
<path fill="none" stroke="#2563a6" stroke-width="1.25" d="M741.62,-295.98C750.63,-281.21 759.17,-267.2 759.17,-267.2 759.17,-267.2 785.02,-256.74 811.28,-246.11"/>
<polygon fill="#2563a6" stroke="#2563a6" stroke-width="1.25" points="812.09,-248.43 817.66,-243.53 810.25,-243.89 812.09,-248.43"/>
<text xml:space="preserve" text-anchor="middle" x="774.55" y="-269.62" font-family="Arial" font-size="8.50" fill="#334e68">ToolCall</text>
</g>
<!-- checkpoint -->
<g id="node12" class="node">
<title>checkpoint</title>
<path fill="#ecfdf5" stroke="#15803d" stroke-width="1.35" d="M385.97,-143.3C385.97,-143.3 167.87,-143.3 167.87,-143.3 161.87,-143.3 155.87,-137.3 155.87,-131.3 155.87,-131.3 155.87,-104.9 155.87,-104.9 155.87,-98.9 161.87,-92.9 167.87,-92.9 167.87,-92.9 385.97,-92.9 385.97,-92.9 391.97,-92.9 397.97,-98.9 397.97,-104.9 397.97,-104.9 397.97,-131.3 397.97,-131.3 397.97,-137.3 391.97,-143.3 385.97,-143.3"/>
<text xml:space="preserve" text-anchor="middle" x="276.92" y="-126.13" font-family="Arial" font-size="10.50" fill="#102a43">ATOMIC CHECKPOINT STORE</text>
<text xml:space="preserve" text-anchor="middle" x="276.92" y="-114.13" font-family="Arial" font-size="10.50" fill="#102a43">write&#45;ahead pending action before execution</text>
<text xml:space="preserve" text-anchor="middle" x="276.92" y="-102.13" font-family="Arial" font-size="10.50" fill="#102a43">committed next step + bounded recovery state</text>
</g>
<!-- agent&#45;&gt;checkpoint -->
<g id="edge19" class="edge">
<title>agent&#45;&gt;checkpoint</title>
<path fill="none" stroke="#2563a6" stroke-width="1.25" d="M577.51,-312.12C455.51,-296.99 299.92,-277.7 299.92,-277.7 299.92,-277.7 290.67,-248.2 290.67,-248.2 290.67,-248.2 284.55,-190.73 280.48,-152.48"/>
<polygon fill="#2563a6" stroke="#2563a6" stroke-width="1.25" points="282.92,-152.27 279.74,-145.57 278.05,-152.79 282.92,-152.27"/>
<text xml:space="preserve" text-anchor="middle" x="330.8" y="-220.18" font-family="Arial" font-size="8.50" fill="#334e68">write&#45;ahead + commit</text>
</g>
<!-- trace -->
<g id="node13" class="node">
<title>trace</title>
<path fill="#ecfdf5" stroke="#15803d" stroke-width="1.35" d="M749.35,-137.3C749.35,-137.3 440.5,-137.3 440.5,-137.3 434.5,-137.3 428.5,-131.3 428.5,-125.3 428.5,-125.3 428.5,-110.9 428.5,-110.9 428.5,-104.9 434.5,-98.9 440.5,-98.9 440.5,-98.9 749.35,-98.9 749.35,-98.9 755.35,-98.9 761.35,-104.9 761.35,-110.9 761.35,-110.9 761.35,-125.3 761.35,-125.3 761.35,-131.3 755.35,-137.3 749.35,-137.3"/>
<text xml:space="preserve" text-anchor="middle" x="594.92" y="-120.13" font-family="Arial" font-size="10.50" fill="#102a43">VERSIONED TRACE + HOOKS</text>
<text xml:space="preserve" text-anchor="middle" x="594.92" y="-108.13" font-family="Arial" font-size="10.50" fill="#102a43">planner attempts + browser state + ToolCall + ToolResult + events</text>
</g>
<!-- agent&#45;&gt;trace -->
<g id="edge20" class="edge">
<title>agent&#45;&gt;trace</title>
<path fill="none" stroke="#2563a6" stroke-width="1.25" d="M674.91,-295.73C644.77,-273.34 610.92,-248.2 610.92,-248.2 610.92,-248.2 603.01,-184.33 598.31,-146.44"/>
<polygon fill="#2563a6" stroke="#2563a6" stroke-width="1.25" points="600.78,-146.4 597.48,-139.75 595.91,-147 600.78,-146.4"/>
<text xml:space="preserve" text-anchor="middle" x="651.42" y="-220.18" font-family="Arial" font-size="8.50" fill="#334e68">record steps + events</text>
</g>
<!-- browser&#45;&gt;agent -->
<g id="edge8" class="edge">
<title>browser&#45;&gt;agent</title>
<path fill="none" stroke="#2563a6" stroke-width="1.25" d="M984.37,-319.14C970.76,-318.08 961.99,-317.4 961.99,-317.4 961.99,-317.4 886.24,-317.4 886.24,-317.4 886.24,-317.4 881.28,-317.8 873.08,-318.47"/>
<polygon fill="#2563a6" stroke="#2563a6" stroke-width="1.25" points="872.95,-316.03 866.17,-319.04 873.35,-320.91 872.95,-316.03"/>
<text xml:space="preserve" text-anchor="middle" x="924.11" y="-319.82" font-family="Arial" font-size="8.50" fill="#334e68">stable BrowserState</text>
</g>
<!-- registry -->
<g id="node7" class="node">
<title>registry</title>
<path fill="#f8fafc" stroke="#164e63" stroke-width="1.35" d="M523.85,-242.2C523.85,-242.2 398,-242.2 398,-242.2 392,-242.2 386,-236.2 386,-230.2 386,-230.2 386,-215.8 386,-215.8 386,-209.8 392,-203.8 398,-203.8 398,-203.8 523.85,-203.8 523.85,-203.8 529.85,-203.8 535.85,-209.8 535.85,-215.8 535.85,-215.8 535.85,-230.2 535.85,-230.2 535.85,-236.2 529.85,-242.2 523.85,-242.2"/>
<text xml:space="preserve" text-anchor="middle" x="460.92" y="-225.03" font-family="Arial" font-size="10.50" fill="#102a43">TOOL REGISTRY</text>
<text xml:space="preserve" text-anchor="middle" x="460.92" y="-213.03" font-family="Arial" font-size="10.50" fill="#102a43">auto&#45;discovered ToolSpecs</text>
</g>
<!-- exposure -->
<g id="node8" class="node">
<title>exposure</title>
<path fill="#fff7ed" stroke="#d97706" stroke-width="1.35" d="M203.85,-248.2C203.85,-248.2 12,-248.2 12,-248.2 6,-248.2 0,-242.2 0,-236.2 0,-236.2 0,-209.8 0,-209.8 0,-203.8 6,-197.8 12,-197.8 12,-197.8 203.85,-197.8 203.85,-197.8 209.85,-197.8 215.85,-203.8 215.85,-209.8 215.85,-209.8 215.85,-236.2 215.85,-236.2 215.85,-242.2 209.85,-248.2 203.85,-248.2"/>
<text xml:space="preserve" text-anchor="middle" x="107.92" y="-231.03" font-family="Arial" font-size="10.50" fill="#102a43">EXPOSURE FILTER</text>
<text xml:space="preserve" text-anchor="middle" x="107.92" y="-219.03" font-family="Arial" font-size="10.50" fill="#102a43">discovery mode + configured allowlist</text>
<text xml:space="preserve" text-anchor="middle" x="107.92" y="-207.03" font-family="Arial" font-size="10.50" fill="#102a43">one allowed set for planner and executor</text>
</g>
<!-- registry&#45;&gt;exposure -->
<g id="edge10" class="edge">
<title>registry&#45;&gt;exposure</title>
<path fill="none" stroke="#2563a6" stroke-width="1.25" d="M412.19,-242.84C381.18,-255.46 346.8,-269.46 346.8,-269.46 346.8,-269.46 307.05,-269.46 307.05,-269.46 307.05,-269.46 268.27,-260.41 224.94,-250.3"/>
<polygon fill="#2563a6" stroke="#2563a6" stroke-width="1.25" points="225.73,-247.97 218.36,-248.77 224.62,-252.74 225.73,-247.97"/>
<text xml:space="preserve" text-anchor="middle" x="326.92" y="-269.62" font-family="Arial" font-size="8.50" fill="#334e68">ToolSpecs</text>
</g>
<!-- exposure&#45;&gt;planner -->
<g id="edge11" class="edge">
<title>exposure&#45;&gt;planner</title>
<path fill="none" stroke="#d97706" stroke-width="1.25" d="M119.74,-248.65C126.51,-262.77 133.67,-277.7 133.67,-277.7 133.67,-277.7 147.12,-288.3 161.9,-299.94"/>
<polygon fill="#d97706" stroke="#d97706" stroke-width="1.25" points="160.24,-301.75 167.25,-304.16 163.27,-297.9 160.24,-301.75"/>
<text xml:space="preserve" text-anchor="middle" x="193.3" y="-269.62" font-family="Arial" font-size="8.50" fill="#b45309">configure_tools(exposed specs)</text>
</g>
<!-- exposure&#45;&gt;executor -->
<g id="edge12" class="edge">
<title>exposure&#45;&gt;executor</title>
<path fill="none" stroke="#d97706" stroke-width="1.25" d="M216.41,-243.87C229.82,-246.45 238.92,-248.2 238.92,-248.2 238.92,-248.2 431.67,-269.46 431.67,-269.46 431.67,-269.46 496.17,-269.46 496.17,-269.46 496.17,-269.46 683.92,-248.2 683.92,-248.2 683.92,-248.2 695.99,-246.53 713.9,-244.05"/>
<polygon fill="#d97706" stroke="#d97706" stroke-width="1.25" points="714.05,-246.5 720.65,-243.12 713.38,-241.65 714.05,-246.5"/>
<text xml:space="preserve" text-anchor="middle" x="463.92" y="-269.62" font-family="Arial" font-size="8.50" fill="#b45309">same allowed set</text>
</g>
<!-- executor&#45;&gt;agent -->
<g id="edge14" class="edge">
<title>executor&#45;&gt;agent</title>
<path fill="none" stroke="#15803d" stroke-width="1.25" d="M840.39,-242.78C819.34,-258.27 792.92,-277.7 792.92,-277.7 792.92,-277.7 785.23,-283.28 774.88,-290.78"/>
<polygon fill="#15803d" stroke="#15803d" stroke-width="1.25" points="773.5,-288.75 769.27,-294.85 776.38,-292.72 773.5,-288.75"/>
<text xml:space="preserve" text-anchor="middle" x="826.76" y="-269.62" font-family="Arial" font-size="8.50" fill="#15803d">ToolResult</text>
</g>
<!-- tools -->
<g id="node10" class="node">
<title>tools</title>
<path fill="#f8fafc" stroke="#164e63" stroke-width="1.35" d="M1297.97,-242.2C1297.97,-242.2 1139.88,-242.2 1139.88,-242.2 1133.88,-242.2 1127.88,-236.2 1127.88,-230.2 1127.88,-230.2 1127.88,-215.8 1127.88,-215.8 1127.88,-209.8 1133.88,-203.8 1139.88,-203.8 1139.88,-203.8 1297.97,-203.8 1297.97,-203.8 1303.97,-203.8 1309.97,-209.8 1309.97,-215.8 1309.97,-215.8 1309.97,-230.2 1309.97,-230.2 1309.97,-236.2 1303.97,-242.2 1297.97,-242.2"/>
<text xml:space="preserve" text-anchor="middle" x="1218.92" y="-225.03" font-family="Arial" font-size="10.50" fill="#102a43">BUILT&#45;IN TOOLS</text>
<text xml:space="preserve" text-anchor="middle" x="1218.92" y="-213.03" font-family="Arial" font-size="10.50" fill="#102a43">browser / search / PDF / file / task</text>
</g>
<!-- executor&#45;&gt;tools -->
<g id="edge15" class="edge">
<title>executor&#45;&gt;tools</title>
<path fill="none" stroke="#2563a6" stroke-width="1.25" d="M1025.9,-223C1057.48,-223 1089.76,-223 1118.67,-223"/>
<polygon fill="#2563a6" stroke="#2563a6" stroke-width="1.25" points="1118.64,-225.45 1125.64,-223 1118.64,-220.55 1118.64,-225.45"/>
<text xml:space="preserve" text-anchor="middle" x="1076.55" y="-228.43" font-family="Arial" font-size="8.50" fill="#334e68">authorized dispatch</text>
</g>
<!-- tools&#45;&gt;browser -->
<g id="edge16" class="edge">
<title>tools&#45;&gt;browser</title>
<path fill="none" stroke="#2563a6" stroke-width="1.25" d="M1204.26,-242.72C1192.25,-258.03 1175.01,-280.04 1160.84,-298.11"/>
<polygon fill="#2563a6" stroke="#2563a6" stroke-width="1.25" points="1158.94,-296.56 1156.55,-303.58 1162.8,-299.58 1158.94,-296.56"/>
<text xml:space="preserve" text-anchor="middle" x="1209.98" y="-269.62" font-family="Arial" font-size="8.50" fill="#334e68">browser tools</text>
</g>
<!-- documents -->
<g id="node11" class="node">
<title>documents</title>
<path fill="#f5f3ff" stroke="#7c3aed" stroke-width="1.35" d="M1376.35,-149.3C1376.35,-149.3 1061.5,-149.3 1061.5,-149.3 1055.5,-149.3 1049.5,-143.3 1049.5,-137.3 1049.5,-137.3 1049.5,-98.9 1049.5,-98.9 1049.5,-92.9 1055.5,-86.9 1061.5,-86.9 1061.5,-86.9 1376.35,-86.9 1376.35,-86.9 1382.35,-86.9 1388.35,-92.9 1388.35,-98.9 1388.35,-98.9 1388.35,-137.3 1388.35,-137.3 1388.35,-143.3 1382.35,-149.3 1376.35,-149.3"/>
<text xml:space="preserve" text-anchor="middle" x="1218.92" y="-132.13" font-family="Arial" font-size="10.50" fill="#102a43">DOCUMENT INTELLIGENCE</text>
<text xml:space="preserve" text-anchor="middle" x="1218.92" y="-120.13" font-family="Arial" font-size="10.50" fill="#102a43">local profile &#45;&gt; ordered cloud providers &#45;&gt; quality gate</text>
<text xml:space="preserve" text-anchor="middle" x="1218.92" y="-108.13" font-family="Arial" font-size="10.50" fill="#102a43">first passing result wins; PyMuPDF only after all cloud providers fail</text>
<text xml:space="preserve" text-anchor="middle" x="1218.92" y="-96.13" font-family="Arial" font-size="10.50" fill="#102a43">structured text + tables + captioned figures</text>
</g>
<!-- tools&#45;&gt;documents -->
<g id="edge17" class="edge">
<title>tools&#45;&gt;documents</title>
<path fill="none" stroke="#7c3aed" stroke-width="1.25" d="M1202.15,-203.18C1191.78,-191.54 1180.42,-178.8 1180.42,-178.8 1180.42,-178.8 1180.42,-168.3 1180.42,-168.3 1180.42,-168.3 1184.37,-163.26 1189.73,-156.41"/>
<polygon fill="#7c3aed" stroke="#7c3aed" stroke-width="1.25" points="1191.43,-158.21 1193.81,-151.19 1187.57,-155.19 1191.43,-158.21"/>
<text xml:space="preserve" text-anchor="middle" x="1199.17" y="-170.73" font-family="Arial" font-size="8.50" fill="#7c3aed">PDF tools</text>
</g>
<!-- documents&#45;&gt;tools -->
<g id="edge18" class="edge">
<title>documents&#45;&gt;tools</title>
<path fill="none" stroke="#7c3aed" stroke-width="1.25" d="M1220.17,-149.7C1220.58,-159.7 1220.92,-168.3 1220.92,-168.3 1220.92,-168.3 1220.92,-178.8 1220.92,-178.8 1220.92,-178.8 1220.59,-185.96 1220.2,-194.46"/>
<polygon fill="#7c3aed" stroke="#7c3aed" stroke-width="1.25" points="1217.76,-194.18 1219.88,-201.29 1222.66,-194.41 1217.76,-194.18"/>
<text xml:space="preserve" text-anchor="middle" x="1257.67" y="-170.73" font-family="Arial" font-size="8.50" fill="#7c3aed">structured evidence</text>
</g>
<!-- result -->
<g id="node14" class="node">
<title>result</title>
<path fill="#dcfce7" stroke="#15803d" stroke-width="1.8" d="M603.6,-38.4C603.6,-38.4 266.25,-38.4 266.25,-38.4 260.25,-38.4 254.25,-32.4 254.25,-26.4 254.25,-26.4 254.25,-12 254.25,-12 254.25,-6 260.25,0 266.25,0 266.25,0 603.6,0 603.6,0 609.6,0 615.6,-6 615.6,-12 615.6,-12 615.6,-26.4 615.6,-26.4 615.6,-32.4 609.6,-38.4 603.6,-38.4"/>
<text xml:space="preserve" text-anchor="middle" x="434.92" y="-21.22" font-family="Arial" font-size="10.50" fill="#102a43">GROUNDED TERMINAL RESULT</text>
<text xml:space="preserve" text-anchor="middle" x="434.92" y="-9.22" font-family="Arial" font-size="10.50" fill="#102a43">attachments + observable evidence + independent evaluation boundary</text>
</g>
<!-- checkpoint&#45;&gt;result -->
<g id="edge21" class="edge">
<title>checkpoint&#45;&gt;result</title>
<path fill="none" stroke="#15803d" stroke-width="1.25" d="M317.2,-92.4C341.54,-77.47 372.39,-58.55 396.41,-43.82"/>
<polygon fill="#15803d" stroke="#15803d" stroke-width="1.25" points="397.65,-45.94 402.33,-40.19 395.08,-41.76 397.65,-45.94"/>
<text xml:space="preserve" text-anchor="middle" x="402.33" y="-59.83" font-family="Arial" font-size="8.50" fill="#15803d">recoverable state</text>
</g>
<!-- trace&#45;&gt;result -->
<g id="edge22" class="edge">
<title>trace&#45;&gt;result</title>
<path fill="none" stroke="#15803d" stroke-width="1.25" d="M564.08,-98.42C538.34,-82.83 501.54,-60.54 473.79,-43.74"/>
<polygon fill="#15803d" stroke="#15803d" stroke-width="1.25" points="475.1,-41.67 467.84,-40.14 472.56,-45.86 475.1,-41.67"/>
<text xml:space="preserve" text-anchor="middle" x="545" y="-59.83" font-family="Arial" font-size="8.50" fill="#15803d">auditable evidence</text>
</g>
</g>
</svg>
